# xmcd
#
# Track frame offsets:
#	150
#	13742
#	23686
#	36348
#	49313
#	59826
#	68967
#	78079
#	89121
#	98139
#	106857
#	116237
#	127006
#	134993
#	146618
#	154926
#	163711
#	181198
#	194393
#	205789
#	216331
#	228045
#	238800
#	254483
#	277144
#	288054
#
# Disc length: 4348 seconds
#
# Revision: 0
# Processed by: cddbd v1.5.2PL0 Copyright (c) Steve Scherf et al.
# Submitted via: EasyCDDAExtractor 12.0.1.1
#
DISCID=9210fa1a
DTITLE=Johnny Cash - Complete Recording Sessions [Cd 10] 1961-1962 Sessions
DYEAR=2005
DGENRE=Country
TTITLE0=Tennessee Flat Top Box
TTITLE1=So Do I
TTITLE2=I Walk The Line (Remake"Slow")
TTITLE3=I Walk The Line (Remake"Fast")
TTITLE4=Delia's Gone (Alt. #2)
TTITLE5=Delia's Gone
TTITLE6=Lost On The Desert
TTITLE7=I Forgot More Than You'll Ever
TTITLE8=Sing It Pretty Sue
TTITLE9=Accidentally On Purpose
TTITLE10=You Remembered Me
TTITLE11=In The Jailhouse Now
TTITLE12=Let Me Down Easy
TTITLE13=In Them Cottonfields Back Home
TTITLE14=You Won't Have Far To Go
TTITLE15=A Little At A Time
TTITLE16=Were You There?
TTITLE17=Johnny Reb
TTITLE18=The Shifting Whispering Sands
TTITLE19=Bonanza
TTITLE20=Shamrock Doesn't Grow In Calif
TTITLE21=Blue Christmas
TTITLE22=Silent Night
TTITLE23=The Christmas Spirit
TTITLE24=No One Will Ever Know
TTITLE25=The Legend Of John Henry's H.
EXTD=
EXTT0=
EXTT1=
EXTT2=
EXTT3=
EXTT4=
EXTT5=
EXTT6=
EXTT7=
EXTT8=
EXTT9=
EXTT10=
EXTT11=
EXTT12=
EXTT13=
EXTT14=
EXTT15=
EXTT16=
EXTT17=
EXTT18=
EXTT19=
EXTT20=
EXTT21=
EXTT22=
EXTT23=
EXTT24=
EXTT25=
PLAYORDER=
